<svg width="44" height="24" viewBox="0 0 44 24" fill="none" xmlns="http://www.w3.org/2000/svg">
<path d="M14.7816 3.06247L1.40579 16.4383C0.585439 17.259 0.124727 18.372 0.125 19.5325C0.125274 20.6929 0.58651 21.8057 1.40724 22.626C2.22798 23.4464 3.34098 23.9071 4.5014 23.9068C5.66182 23.9065 6.77461 23.4453 7.59495 22.6246L20.9679 9.24872C21.1033 9.11291 21.2643 9.00516 21.4414 8.93164C21.6186 8.85812 21.8085 8.82028 22.0004 8.82028C22.1922 8.82028 22.3821 8.85812 22.5593 8.93164C22.7365 9.00516 22.8974 9.11291 23.0329 9.24872L36.4058 22.6246C37.2261 23.4453 38.3389 23.9065 39.4993 23.9068C40.6598 23.9071 41.7728 23.4464 42.5935 22.626C43.4142 21.8057 43.8755 20.6929 43.8757 19.5325C43.876 18.372 43.4153 17.259 42.595 16.4383L29.2191 3.06247C27.3028 1.15138 24.7068 0.078177 22.0004 0.078177C19.294 0.078177 16.698 1.15138 14.7816 3.06247Z" fill="#7157FF" fill-opacity="0.3"/>
</svg>
