<svg width="57" height="57" viewBox="0 0 57 57" fill="none" xmlns="http://www.w3.org/2000/svg">
<path d="M49.8751 21.3751H35.6249V7.12491C35.6249 3.18989 32.435 0 28.5 0C24.565 0 21.3751 3.18989 21.3751 7.12491V21.3751H7.12491C3.18989 21.3751 0 24.565 0 28.5C0 32.435 3.18989 35.6249 7.12491 35.6249H21.3751V49.8751C21.3751 53.8101 24.565 57 28.5 57C32.435 57 35.6249 53.8101 35.6249 49.8751V35.6249H49.8751C53.8101 35.6249 57 32.435 57 28.5C57 24.565 53.8101 21.3751 49.8751 21.3751Z" fill="#D8D4F1"/>
</svg>
