<svg width="33" height="35" viewBox="0 0 33 35" fill="none" xmlns="http://www.w3.org/2000/svg">
<path d="M19.9632 25.891L16.9578 22.9106C15.5765 21.5408 14.8858 20.8559 14.0906 20.599C13.3911 20.3729 12.6383 20.3729 11.9386 20.599C11.1435 20.8559 10.4528 21.5408 9.07144 22.9106L2.07338 29.9588M19.9632 25.891L20.5605 25.2984C21.971 23.8998 22.6761 23.2005 23.4853 22.9454C24.1968 22.7208 24.9614 22.7296 25.6677 22.9704C26.4706 23.2443 27.1596 23.9595 28.5373 25.3901L30 26.8752M19.9632 25.891L26.885 32.9349M2.07338 29.9588C2 29.3365 2 28.5315 2 27.4V10.6C2 8.63982 2 7.65972 2.38148 6.91104C2.71703 6.25246 3.25247 5.71703 3.91104 5.38148C4.65972 5 5.63981 5 7.6 5H14.25M2.07338 29.9588C2.12712 30.4145 2.2202 30.7724 2.38148 31.089C2.71703 31.7475 3.25247 32.283 3.91104 32.6185C4.65972 33 5.63981 33 7.6 33H24.4C26.3602 33 27.3404 33 28.089 32.6185C28.7475 32.283 29.283 31.7475 29.6185 31.089C30 30.3404 30 29.3602 30 27.4V20.75" stroke="#D8D4F1" stroke-width="4" stroke-linecap="round" stroke-linejoin="round"/>
<path d="M26 2V14M26 2L21 7M26 2L31 7" stroke="#D8D4F1" stroke-width="4" stroke-linecap="round" stroke-linejoin="round"/>
</svg>
